<svg viewBox="0 0 188 97" xmlns="http://www.w3.org/2000/svg" fill-rule="evenodd" clip-rule="evenodd" stroke-linejoin="round" stroke-miterlimit="2"><path fill="none" d="M0 0h187.1v96.5H0z"/><clipPath id="a"><path d="M0 0h187.1v96.5H0z"/></clipPath><g clip-path="url(#a)"><path d="M18.348 26.991v-2.25h2.25v-4.5h-2.25v-2.25H7.098v9h11.25zm0-13.5v-2.25h2.25v-4.5h-2.25v-2.25H7.098v9h11.25zm-15.75 18v-31.5h18v2.25h2.25v2.25h2.25v9h-2.25v4.5h2.25v9h-2.25v2.25h-2.25v2.25h-18zm27 0v-31.5h4.5v27h18v4.5h-22.5zm31.5 0v-4.5h4.5v-22.5h-4.5v-4.5h13.5v4.5h-4.5v22.5h4.5v4.5h-13.5zm22.5 0v-4.5h15.75v-2.25h2.25v-4.5h-2.25v-2.25h-11.25v-2.25h-2.25v-2.25h-2.25v-9h2.25v-2.25h2.25v-2.25h18v4.5h-15.75v2.25h-2.25v4.5h2.25v2.25h11.25v2.25h2.25v2.25h2.25v9h-2.25v2.25h-2.25v2.25h-18zm27 0v-31.5h4.5v13.5h2.25v-2.25h2.25v-2.25h2.25v-2.25h2.25v-2.25h2.25v-2.25h2.25v-2.25h4.5v4.5h-2.25v2.25h-2.25v2.25h-2.25v2.25h-2.25v2.25h-2.25v4.5h2.25v2.25h2.25v2.25h2.25v2.25h2.25v2.25h2.25v4.5h-4.5v-2.25h-2.25v-2.25h-2.25v-2.25h-2.25v-2.25h-2.25v-2.25h-2.25v-2.25h-2.25v13.5h-4.5zm42.75-4.5v-2.25h2.25v-18h-2.25v-2.25h-9v2.25h-2.25v18h2.25v2.25h9zm-11.25 4.5v-2.25h-2.25v-2.25h-2.25v-22.5h2.25v-2.25h2.25v-2.25h13.5v2.25h2.25v2.25h2.25v22.5h-2.25v2.25h-2.25v2.25h-13.5zm-123.75 31.5v-2.25h2.25v-4.5h-2.25v-2.25H7.098v9h11.25zm0-13.5v-2.25h2.25v-4.5h-2.25v-2.25H7.098v9h11.25zm-15.75 18v-31.5h18v2.25h2.25v2.25h2.25v9h-2.25v4.5h2.25v9h-2.25v2.25h-2.25v2.25h-18zm42.75-18v-2.25h2.25v-4.5h-2.25v-2.25h-11.25v9h11.25zm-15.75 18v-31.5h18v2.25h2.25v2.25h2.25v9h-2.25v2.25h-2.25v2.25h-4.5v2.25h2.25v2.25h2.25v2.25h2.25v2.25h2.25v4.5h-4.5v-2.25h-2.25v-2.25h-2.25v-2.25h-2.25v-2.25h-2.25v-4.5h-4.5v13.5h-4.5zm27 0v-9h2.25v-2.25h2.25v-2.25h2.25v-2.25h2.25v-2.25h2.25v-2.25h2.25v-2.25h2.25v-2.25h2.25v-2.25h-18v-4.5h22.5v9h-2.25v2.25h-2.25v2.25h-2.25v2.25h-2.25v2.25h-2.25v2.25h-2.25v2.25h-2.25v2.25h-2.25v2.25h18v4.5h-22.5zm27 0v-31.5h22.5v4.5h-18v9h13.5v4.5h-13.5v9h18v4.5h-22.5zm31.5 0v-2.25h-2.25v-2.25h-2.25v-22.5h2.25v-2.25h2.25v-2.25h13.5v2.25h2.25v2.25h2.25v4.5h-4.5v-2.25h-2.25v-2.25h-9v2.25h-2.25v18h2.25v2.25h6.75v-2.25h2.25v-2.25h2.25v-4.5h-6.75v-4.5h11.25v18h-4.5v-2.25h-2.25v2.25h-11.25zm27 0v-2.25h-2.25v-2.25h-2.25v-27h4.5v24.75h2.25v2.25h9v-2.25h2.25v-24.75h4.5v27h-2.25v2.25h-2.25v2.25h-13.5zm40.5-4.5v-2.25h-2.25v-2.25h-2.25v-2.25h-2.25v-2.25h-2.25v-2.25h-2.25v-2.25h-2.25v-2.25h-2.25v-2.25h-2.25v-4.5h4.5v2.25h2.25v2.25h2.25v2.25h2.25v2.25h2.25v2.25h2.25v2.25h2.25v2.25h2.25v2.25h2.25v4.5h-4.5z" fill="#27ff00" fill-rule="nonzero"/><path fill="#38ff00" d="M.002 77.074h76.65v19.435H.002z"/><path d="M2.72 94.347V78.835h15.513v3.103H5.823v3.102h9.307v3.103H5.823v6.204H2.721zm18.615 0V78.835h15.512v3.103h-12.41v3.102h9.308v3.103h-9.307v3.102h12.41v3.102H21.334zm18.615 0v-3.102h12.41v-3.102H39.95v-9.308h15.512v3.103h-12.41v3.102h12.41v9.307H39.95zm24.82 0v-12.41h-6.205v-3.102h15.512v3.103h-6.205v12.41H64.77z" fill-rule="nonzero"/></g></svg>