<?xml version="1.0" encoding="UTF-8" standalone="no"?>
<!DOCTYPE svg PUBLIC "-//W3C//DTD SVG 1.1//EN" "http://www.w3.org/Graphics/SVG/1.1/DTD/svg11.dtd">
<svg width="100%" height="100%" viewBox="0 0 188 97" version="1.1" xmlns="http://www.w3.org/2000/svg" xmlns:xlink="http://www.w3.org/1999/xlink" xml:space="preserve" xmlns:serif="http://www.serif.com/" style="fill-rule:evenodd;clip-rule:evenodd;stroke-linejoin:round;stroke-miterlimit:2;">
    <rect id="Artboard1" x="0" y="0" width="187.1" height="96.5" style="fill:none;"/>
    <clipPath id="_clip1">
        <rect id="Artboard11" serif:id="Artboard1" x="0" y="0" width="187.1" height="96.5"/>
    </clipPath>
    <g clip-path="url(#_clip1)">
        <g transform="matrix(1,0,0,1,-51.2458,-93.7904)">
            <g transform="matrix(1,0,0,1,-33.8973,22.5269)">
                <path d="M103.491,98.255L103.491,96.005L105.741,96.005L105.741,91.505L103.491,91.505L103.491,89.255L92.241,89.255L92.241,98.255L103.491,98.255ZM103.491,84.755L103.491,82.505L105.741,82.505L105.741,78.005L103.491,78.005L103.491,75.755L92.241,75.755L92.241,84.755L103.491,84.755ZM87.741,102.755L87.741,71.255L105.741,71.255L105.741,73.505L107.991,73.505L107.991,75.755L110.241,75.755L110.241,84.755L107.991,84.755L107.991,89.255L110.241,89.255L110.241,98.255L107.991,98.255L107.991,100.505L105.741,100.505L105.741,102.755L87.741,102.755Z" style="fill:rgb(39,255,0);fill-rule:nonzero;"/>
                <path d="M114.741,102.755L114.741,71.255L119.241,71.255L119.241,98.255L137.241,98.255L137.241,102.755L114.741,102.755Z" style="fill:rgb(39,255,0);fill-rule:nonzero;"/>
                <path d="M146.241,102.755L146.241,98.255L150.741,98.255L150.741,75.755L146.241,75.755L146.241,71.255L159.741,71.255L159.741,75.755L155.241,75.755L155.241,98.255L159.741,98.255L159.741,102.755L146.241,102.755Z" style="fill:rgb(39,255,0);fill-rule:nonzero;"/>
                <path d="M168.741,102.755L168.741,98.255L184.491,98.255L184.491,96.005L186.741,96.005L186.741,91.505L184.491,91.505L184.491,89.255L173.241,89.255L173.241,87.005L170.991,87.005L170.991,84.755L168.741,84.755L168.741,75.755L170.991,75.755L170.991,73.505L173.241,73.505L173.241,71.255L191.241,71.255L191.241,75.755L175.491,75.755L175.491,78.005L173.241,78.005L173.241,82.505L175.491,82.505L175.491,84.755L186.741,84.755L186.741,87.005L188.991,87.005L188.991,89.255L191.241,89.255L191.241,98.255L188.991,98.255L188.991,100.505L186.741,100.505L186.741,102.755L168.741,102.755Z" style="fill:rgb(39,255,0);fill-rule:nonzero;"/>
                <path d="M195.741,102.755L195.741,71.255L200.241,71.255L200.241,84.755L202.491,84.755L202.491,82.505L204.741,82.505L204.741,80.255L206.991,80.255L206.991,78.005L209.241,78.005L209.241,75.755L211.491,75.755L211.491,73.505L213.741,73.505L213.741,71.255L218.241,71.255L218.241,75.755L215.991,75.755L215.991,78.005L213.741,78.005L213.741,80.255L211.491,80.255L211.491,82.505L209.241,82.505L209.241,84.755L206.991,84.755L206.991,89.255L209.241,89.255L209.241,91.505L211.491,91.505L211.491,93.755L213.741,93.755L213.741,96.005L215.991,96.005L215.991,98.255L218.241,98.255L218.241,102.755L213.741,102.755L213.741,100.505L211.491,100.505L211.491,98.255L209.241,98.255L209.241,96.005L206.991,96.005L206.991,93.755L204.741,93.755L204.741,91.505L202.491,91.505L202.491,89.255L200.241,89.255L200.241,102.755L195.741,102.755Z" style="fill:rgb(39,255,0);fill-rule:nonzero;"/>
                <path d="M238.491,98.255L238.491,96.005L240.741,96.005L240.741,78.005L238.491,78.005L238.491,75.755L229.491,75.755L229.491,78.005L227.241,78.005L227.241,96.005L229.491,96.005L229.491,98.255L238.491,98.255ZM227.241,102.755L227.241,100.505L224.991,100.505L224.991,98.255L222.741,98.255L222.741,75.755L224.991,75.755L224.991,73.505L227.241,73.505L227.241,71.255L240.741,71.255L240.741,73.505L242.991,73.505L242.991,75.755L245.241,75.755L245.241,98.255L242.991,98.255L242.991,100.505L240.741,100.505L240.741,102.755L227.241,102.755Z" style="fill:rgb(39,255,0);fill-rule:nonzero;"/>
                <path d="M103.491,134.255L103.491,132.005L105.741,132.005L105.741,127.505L103.491,127.505L103.491,125.255L92.241,125.255L92.241,134.255L103.491,134.255ZM103.491,120.755L103.491,118.505L105.741,118.505L105.741,114.005L103.491,114.005L103.491,111.755L92.241,111.755L92.241,120.755L103.491,120.755ZM87.741,138.755L87.741,107.255L105.741,107.255L105.741,109.505L107.991,109.505L107.991,111.755L110.241,111.755L110.241,120.755L107.991,120.755L107.991,125.255L110.241,125.255L110.241,134.255L107.991,134.255L107.991,136.505L105.741,136.505L105.741,138.755L87.741,138.755Z" style="fill:rgb(39,255,0);fill-rule:nonzero;"/>
                <path d="M130.491,120.755L130.491,118.505L132.741,118.505L132.741,114.005L130.491,114.005L130.491,111.755L119.241,111.755L119.241,120.755L130.491,120.755ZM114.741,138.755L114.741,107.255L132.741,107.255L132.741,109.505L134.991,109.505L134.991,111.755L137.241,111.755L137.241,120.755L134.991,120.755L134.991,123.005L132.741,123.005L132.741,125.255L128.241,125.255L128.241,127.505L130.491,127.505L130.491,129.755L132.741,129.755L132.741,132.005L134.991,132.005L134.991,134.255L137.241,134.255L137.241,138.755L132.741,138.755L132.741,136.505L130.491,136.505L130.491,134.255L128.241,134.255L128.241,132.005L125.991,132.005L125.991,129.755L123.741,129.755L123.741,125.255L119.241,125.255L119.241,138.755L114.741,138.755Z" style="fill:rgb(39,255,0);fill-rule:nonzero;"/>
                <path d="M141.741,138.755L141.741,129.755L143.991,129.755L143.991,127.505L146.241,127.505L146.241,125.255L148.491,125.255L148.491,123.005L150.741,123.005L150.741,120.755L152.991,120.755L152.991,118.505L155.241,118.505L155.241,116.255L157.491,116.255L157.491,114.005L159.741,114.005L159.741,111.755L141.741,111.755L141.741,107.255L164.241,107.255L164.241,116.255L161.991,116.255L161.991,118.505L159.741,118.505L159.741,120.755L157.491,120.755L157.491,123.005L155.241,123.005L155.241,125.255L152.991,125.255L152.991,127.505L150.741,127.505L150.741,129.755L148.491,129.755L148.491,132.005L146.241,132.005L146.241,134.255L164.241,134.255L164.241,138.755L141.741,138.755Z" style="fill:rgb(39,255,0);fill-rule:nonzero;"/>
                <path d="M168.741,138.755L168.741,107.255L191.241,107.255L191.241,111.755L173.241,111.755L173.241,120.755L186.741,120.755L186.741,125.255L173.241,125.255L173.241,134.255L191.241,134.255L191.241,138.755L168.741,138.755Z" style="fill:rgb(39,255,0);fill-rule:nonzero;"/>
                <path d="M200.241,138.755L200.241,136.505L197.991,136.505L197.991,134.255L195.741,134.255L195.741,111.755L197.991,111.755L197.991,109.505L200.241,109.505L200.241,107.255L213.741,107.255L213.741,109.505L215.991,109.505L215.991,111.755L218.241,111.755L218.241,116.255L213.741,116.255L213.741,114.005L211.491,114.005L211.491,111.755L202.491,111.755L202.491,114.005L200.241,114.005L200.241,132.005L202.491,132.005L202.491,134.255L209.241,134.255L209.241,132.005L211.491,132.005L211.491,129.755L213.741,129.755L213.741,125.255L206.991,125.255L206.991,120.755L218.241,120.755L218.241,138.755L213.741,138.755L213.741,136.505L211.491,136.505L211.491,138.755L200.241,138.755Z" style="fill:rgb(39,255,0);fill-rule:nonzero;"/>
                <path d="M227.241,138.755L227.241,136.505L224.991,136.505L224.991,134.255L222.741,134.255L222.741,107.255L227.241,107.255L227.241,132.005L229.491,132.005L229.491,134.255L238.491,134.255L238.491,132.005L240.741,132.005L240.741,107.255L245.241,107.255L245.241,134.255L242.991,134.255L242.991,136.505L240.741,136.505L240.741,138.755L227.241,138.755Z" style="fill:rgb(39,255,0);fill-rule:nonzero;"/>
                <path d="M267.741,134.255L267.741,132.005L265.491,132.005L265.491,129.755L263.241,129.755L263.241,127.505L260.991,127.505L260.991,125.255L258.741,125.255L258.741,123.005L256.491,123.005L256.491,120.755L254.241,120.755L254.241,118.505L251.991,118.505L251.991,116.255L249.741,116.255L249.741,111.755L254.241,111.755L254.241,114.005L256.491,114.005L256.491,116.255L258.741,116.255L258.741,118.505L260.991,118.505L260.991,120.755L263.241,120.755L263.241,123.005L265.491,123.005L265.491,125.255L267.741,125.255L267.741,127.505L269.991,127.505L269.991,129.755L272.241,129.755L272.241,134.255L267.741,134.255Z" style="fill:rgb(39,255,0);fill-rule:nonzero;"/>
            </g>
            <g transform="matrix(0.711356,0,0,1,14.7924,0)">
                <rect x="51.248" y="170.864" width="107.752" height="19.435" style="fill:rgb(56,255,0);"/>
            </g>
            <g transform="matrix(2.0683,0,0,2.0683,-120.714,-296.105)">
                <path d="M84.456,234.126L84.456,226.626L91.956,226.626L91.956,228.126L85.956,228.126L85.956,229.626L90.456,229.626L90.456,231.126L85.956,231.126L85.956,234.126L84.456,234.126Z" style="fill-rule:nonzero;"/>
                <path d="M93.456,234.126L93.456,226.626L100.956,226.626L100.956,228.126L94.956,228.126L94.956,229.626L99.456,229.626L99.456,231.126L94.956,231.126L94.956,232.626L100.956,232.626L100.956,234.126L93.456,234.126Z" style="fill-rule:nonzero;"/>
                <path d="M102.456,234.126L102.456,232.626L108.456,232.626L108.456,231.126L102.456,231.126L102.456,226.626L109.956,226.626L109.956,228.126L103.956,228.126L103.956,229.626L109.956,229.626L109.956,234.126L102.456,234.126Z" style="fill-rule:nonzero;"/>
                <path d="M114.456,234.126L114.456,228.126L111.456,228.126L111.456,226.626L118.956,226.626L118.956,228.126L115.956,228.126L115.956,234.126L114.456,234.126Z" style="fill-rule:nonzero;"/>
            </g>
        </g>
    </g>
</svg>
